<svg width="195" height="52" viewBox="0 0 195 52" fill="none" xmlns="http://www.w3.org/2000/svg">
<path d="M69.536 31.792H75.176V34H66.8V17.32H69.536V31.792ZM89.4401 20.776V34H86.7041V32.44C86.2721 32.984 85.7041 33.416 85.0001 33.736C84.3121 34.04 83.5761 34.192 82.7921 34.192C81.7521 34.192 80.8161 33.976 79.9841 33.544C79.1681 33.112 78.5201 32.472 78.0401 31.624C77.5761 30.776 77.3441 29.752 77.3441 28.552V20.776H80.0561V28.144C80.0561 29.328 80.3521 30.24 80.9441 30.88C81.5361 31.504 82.3441 31.816 83.3681 31.816C84.3921 31.816 85.2001 31.504 85.7921 30.88C86.4001 30.24 86.7041 29.328 86.7041 28.144V20.776H89.4401ZM92.138 27.376C92.138 26.016 92.41 24.824 92.954 23.8C93.514 22.76 94.282 21.96 95.258 21.4C96.234 20.84 97.354 20.56 98.618 20.56C100.218 20.56 101.538 20.944 102.578 21.712C103.634 22.464 104.346 23.544 104.714 24.952H101.762C101.522 24.296 101.138 23.784 100.61 23.416C100.082 23.048 99.418 22.864 98.618 22.864C97.498 22.864 96.602 23.264 95.93 24.064C95.274 24.848 94.946 25.952 94.946 27.376C94.946 28.8 95.274 29.912 95.93 30.712C96.602 31.512 97.498 31.912 98.618 31.912C100.202 31.912 101.25 31.216 101.762 29.824H104.714C104.33 31.168 103.61 32.24 102.554 33.04C101.498 33.824 100.186 34.216 98.618 34.216C97.354 34.216 96.234 33.936 95.258 33.376C94.282 32.8 93.514 32 92.954 30.976C92.41 29.936 92.138 28.736 92.138 27.376ZM107.873 17.32H110.849L108.329 23.032H106.409L107.873 17.32ZM118.053 34.216C117.013 34.216 116.077 34.032 115.245 33.664C114.429 33.28 113.781 32.768 113.301 32.128C112.821 31.472 112.565 30.744 112.533 29.944H115.365C115.413 30.504 115.677 30.976 116.157 31.36C116.653 31.728 117.269 31.912 118.005 31.912C118.773 31.912 119.365 31.768 119.781 31.48C120.213 31.176 120.429 30.792 120.429 30.328C120.429 29.832 120.189 29.464 119.709 29.224C119.245 28.984 118.501 28.72 117.477 28.432C116.485 28.16 115.677 27.896 115.053 27.64C114.429 27.384 113.885 26.992 113.421 26.464C112.973 25.936 112.749 25.24 112.749 24.376C112.749 23.672 112.957 23.032 113.373 22.456C113.789 21.864 114.381 21.4 115.149 21.064C115.933 20.728 116.829 20.56 117.837 20.56C119.341 20.56 120.549 20.944 121.461 21.712C122.389 22.464 122.885 23.496 122.949 24.808H120.213C120.165 24.216 119.925 23.744 119.493 23.392C119.061 23.04 118.477 22.864 117.741 22.864C117.021 22.864 116.469 23 116.085 23.272C115.701 23.544 115.509 23.904 115.509 24.352C115.509 24.704 115.637 25 115.893 25.24C116.149 25.48 116.461 25.672 116.829 25.816C117.197 25.944 117.741 26.112 118.461 26.32C119.421 26.576 120.205 26.84 120.813 27.112C121.437 27.368 121.973 27.752 122.421 28.264C122.869 28.776 123.101 29.456 123.117 30.304C123.117 31.056 122.909 31.728 122.493 32.32C122.077 32.912 121.485 33.376 120.717 33.712C119.965 34.048 119.077 34.216 118.053 34.216ZM146.684 17.32L140.42 34H137.252L130.964 17.32H133.892L138.836 31.192L143.804 17.32H146.684ZM148.06 27.328C148.06 26 148.332 24.824 148.876 23.8C149.436 22.776 150.188 21.984 151.132 21.424C152.092 20.848 153.148 20.56 154.3 20.56C155.34 20.56 156.244 20.768 157.012 21.184C157.796 21.584 158.42 22.088 158.884 22.696V20.776H161.644V34H158.884V32.032C158.42 32.656 157.788 33.176 156.988 33.592C156.188 34.008 155.276 34.216 154.252 34.216C153.116 34.216 152.076 33.928 151.132 33.352C150.188 32.76 149.436 31.944 148.876 30.904C148.332 29.848 148.06 28.656 148.06 27.328ZM158.884 27.376C158.884 26.464 158.692 25.672 158.308 25C157.94 24.328 157.452 23.816 156.844 23.464C156.236 23.112 155.58 22.936 154.876 22.936C154.172 22.936 153.516 23.112 152.908 23.464C152.3 23.8 151.804 24.304 151.42 24.976C151.052 25.632 150.868 26.416 150.868 27.328C150.868 28.24 151.052 29.04 151.42 29.728C151.804 30.416 152.3 30.944 152.908 31.312C153.532 31.664 154.188 31.84 154.876 31.84C155.58 31.84 156.236 31.664 156.844 31.312C157.452 30.96 157.94 30.448 158.308 29.776C158.692 29.088 158.884 28.288 158.884 27.376ZM177.214 20.776V34H174.478V32.44C174.046 32.984 173.478 33.416 172.774 33.736C172.086 34.04 171.35 34.192 170.566 34.192C169.526 34.192 168.59 33.976 167.758 33.544C166.942 33.112 166.294 32.472 165.814 31.624C165.35 30.776 165.118 29.752 165.118 28.552V20.776H167.83V28.144C167.83 29.328 168.126 30.24 168.718 30.88C169.31 31.504 170.118 31.816 171.142 31.816C172.166 31.816 172.974 31.504 173.566 30.88C174.174 30.24 174.478 29.328 174.478 28.144V20.776H177.214ZM183.559 16.24V34H180.823V16.24H183.559ZM190.344 23.008V30.328C190.344 30.824 190.456 31.184 190.68 31.408C190.92 31.616 191.32 31.72 191.88 31.72H193.56V34H191.4C190.168 34 189.224 33.712 188.568 33.136C187.912 32.56 187.584 31.624 187.584 30.328V23.008H186.024V20.776H187.584V17.488H190.344V20.776H193.56V23.008H190.344Z" fill="#FA7275"/>
<rect opacity="0.2" width="48" height="48" rx="24" fill="#FA7275"/>
<rect x="21" y="20" width="32" height="32" rx="16" fill="#FA7275"/>
</svg>
