<svg width="304" height="82" viewBox="0 0 304 82" fill="none" xmlns="http://www.w3.org/2000/svg">
<path d="M108.407 50.0307H117.2V53.473H104.142V27.4688H108.407V50.0307ZM139.438 32.8567V53.473H135.172V51.041C134.499 51.8891 133.613 52.5626 132.516 53.0614C131.443 53.5354 130.296 53.7724 129.073 53.7724C127.452 53.7724 125.993 53.4356 124.696 52.7621C123.424 52.0886 122.413 51.0909 121.665 49.7688C120.942 48.4468 120.58 46.8504 120.58 44.9796V32.8567H124.808V44.3435C124.808 46.1893 125.269 47.6112 126.192 48.6089C127.115 49.5817 128.375 50.0682 129.971 50.0682C131.568 50.0682 132.827 49.5817 133.75 48.6089C134.698 47.6112 135.172 46.1893 135.172 44.3435V32.8567H139.438ZM143.644 43.1462C143.644 41.0259 144.068 39.1676 144.916 37.5712C145.789 35.9498 146.986 34.7026 148.508 33.8295C150.029 32.9565 151.776 32.52 153.746 32.52C156.241 32.52 158.298 33.1186 159.92 34.316C161.566 35.4883 162.676 37.1721 163.25 39.3671H158.648C158.273 38.3444 157.675 37.5462 156.852 36.9725C156.029 36.3988 154.993 36.1119 153.746 36.1119C152 36.1119 150.603 36.7355 149.556 37.9827C148.533 39.205 148.021 40.9261 148.021 43.1462C148.021 45.3662 148.533 47.0998 149.556 48.347C150.603 49.5942 152 50.2178 153.746 50.2178C156.216 50.2178 157.849 49.1327 158.648 46.9626H163.25C162.651 49.0579 161.529 50.7292 159.882 51.9764C158.236 53.1986 156.191 53.8098 153.746 53.8098C151.776 53.8098 150.029 53.3732 148.508 52.5002C146.986 51.6022 145.789 50.355 144.916 48.7586C144.068 47.1372 143.644 45.2664 143.644 43.1462ZM168.174 27.4688H172.814L168.885 36.3738H165.892L168.174 27.4688ZM184.046 53.8098C182.424 53.8098 180.965 53.5229 179.668 52.9492C178.396 52.3505 177.386 51.5523 176.637 50.5546C175.889 49.5319 175.49 48.3969 175.44 47.1497H179.855C179.93 48.0227 180.341 48.7586 181.09 49.3572C181.863 49.931 182.823 50.2178 183.971 50.2178C185.168 50.2178 186.091 49.9933 186.74 49.5443C187.413 49.0704 187.75 48.4717 187.75 47.7484C187.75 46.9751 187.376 46.4014 186.627 46.0272C185.904 45.653 184.744 45.2415 183.148 44.7925C181.601 44.3684 180.341 43.9568 179.369 43.5577C178.396 43.1586 177.548 42.5475 176.824 41.7244C176.126 40.9012 175.777 39.8161 175.777 38.4691C175.777 37.3716 176.101 36.3738 176.749 35.4759C177.398 34.5529 178.321 33.8295 179.518 33.3057C180.741 32.7819 182.137 32.52 183.709 32.52C186.054 32.52 187.937 33.1186 189.359 34.316C190.805 35.4883 191.579 37.0972 191.678 39.1426H187.413C187.338 38.2197 186.964 37.4839 186.291 36.9351C185.617 36.3863 184.707 36.1119 183.559 36.1119C182.437 36.1119 181.576 36.324 180.977 36.748C180.379 37.1721 180.079 37.7333 180.079 38.4317C180.079 38.9805 180.279 39.442 180.678 39.8161C181.077 40.1903 181.564 40.4896 182.137 40.7141C182.711 40.9137 183.559 41.1756 184.682 41.4999C186.178 41.899 187.401 42.3105 188.348 42.7346C189.321 43.1337 190.157 43.7324 190.855 44.5306C191.554 45.3288 191.915 46.3889 191.94 47.7109C191.94 48.8833 191.616 49.931 190.968 50.8539C190.319 51.7768 189.396 52.5002 188.199 53.024C187.026 53.5479 185.642 53.8098 184.046 53.8098ZM228.681 27.4688L218.915 53.473H213.976L204.173 27.4688H208.738L216.446 49.0953L224.191 27.4688H228.681ZM230.826 43.0713C230.826 41.001 231.25 39.1676 232.098 37.5712C232.972 35.9747 234.144 34.74 235.616 33.867C237.112 32.969 238.759 32.52 240.555 32.52C242.176 32.52 243.585 32.8443 244.783 33.4928C246.005 34.1164 246.978 34.9021 247.701 35.85V32.8567H252.004V53.473H247.701V50.4049C246.978 51.3777 245.992 52.1884 244.745 52.8369C243.498 53.4855 242.076 53.8098 240.48 53.8098C238.709 53.8098 237.087 53.3608 235.616 52.4628C234.144 51.5399 232.972 50.2677 232.098 48.6463C231.25 47 230.826 45.1417 230.826 43.0713ZM247.701 43.1462C247.701 41.7244 247.402 40.4896 246.803 39.442C246.229 38.3943 245.468 37.5961 244.521 37.0473C243.573 36.4986 242.55 36.2242 241.452 36.2242C240.355 36.2242 239.332 36.4986 238.384 37.0473C237.436 37.5712 236.663 38.3569 236.065 39.4045C235.491 40.4273 235.204 41.6495 235.204 43.0713C235.204 44.4931 235.491 45.7404 236.065 46.8129C236.663 47.8855 237.436 48.7087 238.384 49.2824C239.357 49.8312 240.38 50.1056 241.452 50.1056C242.55 50.1056 243.573 49.8312 244.521 49.2824C245.468 48.7336 246.229 47.9354 246.803 46.8878C247.402 45.8152 247.701 44.568 247.701 43.1462ZM276.277 32.8567V53.473H272.012V51.041C271.338 51.8891 270.453 52.5626 269.355 53.0614C268.282 53.5354 267.135 53.7724 265.913 53.7724C264.291 53.7724 262.832 53.4356 261.535 52.7621C260.263 52.0886 259.253 51.0909 258.504 49.7688C257.781 48.4468 257.419 46.8504 257.419 44.9796V32.8567H261.647V44.3435C261.647 46.1893 262.109 47.6112 263.032 48.6089C263.955 49.5817 265.214 50.0682 266.811 50.0682C268.407 50.0682 269.667 49.5817 270.59 48.6089C271.538 47.6112 272.012 46.1893 272.012 44.3435V32.8567H276.277ZM286.17 25.7851V53.473H281.905V25.7851H286.17ZM296.747 36.3364V47.7484C296.747 48.5216 296.921 49.0829 297.271 49.4321C297.645 49.7564 298.268 49.9185 299.141 49.9185H301.761V53.473H298.393C296.472 53.473 295.001 53.024 293.978 52.126C292.955 51.2281 292.444 49.7688 292.444 47.7484V36.3364H290.012V32.8567H292.444V27.7307H296.747V32.8567H301.761V36.3364H296.747Z" fill="white"/>
<rect opacity="0.2" width="74.8323" height="74.8323" rx="37.4161" fill="white"/>
<rect x="32.7393" y="31.1801" width="49.8882" height="49.8882" rx="24.9441" fill="white"/>
</svg>
